<svg version="1.1" viewBox="0.0 0.0 800.0 600.0" fill="none" stroke="none" stroke-linecap="square" stroke-miterlimit="10" xmlns:xlink="http://www.w3.org/1999/xlink" xmlns="http://www.w3.org/2000/svg"><clipPath id="p.0"><path d="m0 0l800.0 0l0 600.0l-800.0 0l0 -600.0z" clip-rule="nonzero"/></clipPath><g clip-path="url(#p.0)"><path fill="#000000" fill-opacity="0.0" d="m0 0l800.0 0l0 600.0l-800.0 0z" fill-rule="evenodd"/><path fill="#000000" fill-opacity="0.0" d="m329.96048 116.25011l0.18896484 355.24408" fill-rule="evenodd"/><path stroke="#76a5af" stroke-width="8.0" stroke-linejoin="round" stroke-linecap="butt" d="m329.96048 116.25011l0.18896484 355.24408" fill-rule="evenodd"/><path fill="#000000" fill-opacity="0.0" d="m439.81662 115.788895l-0.1574707 357.10236" fill-rule="evenodd"/><path stroke="#76a5af" stroke-width="8.0" stroke-linejoin="round" stroke-linecap="butt" d="m439.81662 115.788895l-0.1574707 357.10236" fill-rule="evenodd"/><path fill="#000000" fill-opacity="0.0" d="m330.49054 469.8586l108.37793 -62.897644" fill-rule="evenodd"/><path stroke="#76a5af" stroke-width="4.0" stroke-linejoin="round" stroke-linecap="butt" d="m330.49054 469.8586l108.37793 -62.897644" fill-rule="evenodd"/><path fill="#000000" fill-opacity="0.0" d="m359.54822 521.9821l78.74017 -114.58267" fill-rule="evenodd"/><path stroke="#76a5af" stroke-width="4.0" stroke-linejoin="round" stroke-linecap="butt" d="m359.54822 521.9821l78.74017 -114.58267" fill-rule="evenodd"/><path fill="#000000" fill-opacity="0.0" d="m330.51813 324.85706l107.74805 84.566925" fill-rule="evenodd"/><path stroke="#76a5af" stroke-width="4.0" stroke-linejoin="round" stroke-linecap="butt" d="m330.51813 324.85706l107.74805 84.566925" fill-rule="evenodd"/><path fill="#000000" fill-opacity="0.0" d="m330.18008 417.57187l49.07086 -57.039368" fill-rule="evenodd"/><path stroke="#76a5af" stroke-width="4.0" stroke-linejoin="round" stroke-linecap="butt" d="m330.18008 417.57187l49.07086 -57.039368" fill-rule="evenodd"/><path fill="#000000" fill-opacity="0.0" d="m376.6143 364.01813l17.007874 70.70865" fill-rule="evenodd"/><path stroke="#76a5af" stroke-width="4.0" stroke-linejoin="round" stroke-linecap="butt" d="m376.6143 364.01813l17.007874 70.70865" fill-rule="evenodd"/><path fill="#000000" fill-opacity="0.0" d="m377.974 361.35065l60.31494 -112.7874" fill-rule="evenodd"/><path stroke="#76a5af" stroke-width="4.0" stroke-linejoin="round" stroke-linecap="butt" d="m377.974 361.35065l60.31494 -112.7874" fill-rule="evenodd"/><path fill="#000000" fill-opacity="0.0" d="m377.73758 362.805l-45.826782 -114.61418" fill-rule="evenodd"/><path stroke="#76a5af" stroke-width="4.0" stroke-linejoin="round" stroke-linecap="butt" d="m377.73758 362.805l-45.826782 -114.61418" fill-rule="evenodd"/><path fill="#000000" fill-opacity="0.0" d="m350.00357 294.5641l87.653564 -47.40158" fill-rule="evenodd"/><path stroke="#76a5af" stroke-width="4.0" stroke-linejoin="round" stroke-linecap="butt" d="m350.00357 294.5641l87.653564 -47.40158" fill-rule="evenodd"/><path fill="#000000" fill-opacity="0.0" d="m328.58627 249.22812l109.03937 -91.2126" fill-rule="evenodd"/><path stroke="#76a5af" stroke-width="4.0" stroke-linejoin="round" stroke-linecap="butt" d="m328.58627 249.22812l109.03937 -91.2126" fill-rule="evenodd"/><path fill="#000000" fill-opacity="0.0" d="m437.67288 247.19112l-63.685028 -36.40944" fill-rule="evenodd"/><path stroke="#76a5af" stroke-width="4.0" stroke-linejoin="round" stroke-linecap="butt" d="m437.67288 247.19112l-63.685028 -36.40944" fill-rule="evenodd"/><path fill="#000000" fill-opacity="0.0" d="m351.3026 292.5056l21.51181 -79.779526" fill-rule="evenodd"/><path stroke="#76a5af" stroke-width="4.0" stroke-linejoin="round" stroke-linecap="butt" d="m351.3026 292.5056l21.51181 -79.779526" fill-rule="evenodd"/><path fill="#000000" fill-opacity="0.0" d="m438.94095 157.21303l-109.60632 -41.354332" fill-rule="evenodd"/><path stroke="#76a5af" stroke-width="4.0" stroke-linejoin="round" stroke-linecap="butt" d="m438.94095 157.21303l-109.60632 -41.354332" fill-rule="evenodd"/><path fill="#000000" fill-opacity="0.0" d="m330.17227 243.65797l45.51181 -108.44095" fill-rule="evenodd"/><path stroke="#76a5af" stroke-width="4.0" stroke-linejoin="round" stroke-linecap="butt" d="m330.17227 243.65797l45.51181 -108.44095" fill-rule="evenodd"/><path fill="#000000" fill-opacity="0.0" d="m439.68353 465.79706l0 0c-0.02746582 37.32141 -24.394775 67.61737 -54.522095 67.787476c-30.12732 0.17016602 -54.68857 -29.849426 -54.956055 -67.16919l54.738007 -0.6411133z" fill-rule="evenodd"/><path fill="#000000" fill-opacity="0.0" d="m439.68353 465.79706l0 0c-0.02746582 37.32141 -24.394775 67.61737 -54.522095 67.787476c-30.12732 0.17016602 -54.68857 -29.849426 -54.956055 -67.16919" fill-rule="evenodd"/><path stroke="#76a5af" stroke-width="8.0" stroke-linejoin="round" stroke-linecap="butt" d="m439.68353 465.79706l0 0c-0.02746582 37.32141 -24.394775 67.61737 -54.522095 67.787476c-30.12732 0.17016602 -54.68857 -29.849426 -54.956055 -67.16919" fill-rule="evenodd"/><path fill="#76a5af" d="m314.79874 116.162735l0 0c0 -2.1482544 1.7415161 -3.8889847 3.8897705 -3.8880234l132.88187 0.059509277c1.0316467 4.6539307E-4 2.0210266 0.41072083 2.7504883 1.1405182c0.72946167 0.72979736 1.1392822 1.7193604 1.1392822 2.7509842l0 0l0 0c0 2.148262 -1.7414856 3.8889847 -3.8897705 3.8880234l-132.88187 -0.059509277c-2.1482544 -9.613037E-4 -3.8897705 -1.743248 -3.8897705 -3.8915024z" fill-rule="evenodd"/><path stroke="#76a5af" stroke-width="1.0" stroke-linejoin="round" stroke-linecap="butt" d="m314.79874 116.162735l0 0c0 -2.1482544 1.7415161 -3.8889847 3.8897705 -3.8880234l132.88187 0.059509277c1.0316467 4.6539307E-4 2.0210266 0.41072083 2.7504883 1.1405182c0.72946167 0.72979736 1.1392822 1.7193604 1.1392822 2.7509842l0 0l0 0c0 2.148262 -1.7414856 3.8889847 -3.8897705 3.8880234l-132.88187 -0.059509277c-2.1482544 -9.613037E-4 -3.8897705 -1.743248 -3.8897705 -3.8915024z" fill-rule="evenodd"/></g></svg>